<svg width="45" height="45" viewBox="0 0 45 45" fill="none" xmlns="http://www.w3.org/2000/svg">
<path d="M33.5141 0.733002H11.1511C9.76095 0.733002 8.38439 1.00684 7.10005 1.53888C5.81571 2.07092 4.64875 2.85074 3.66581 3.83381C2.68287 4.81688 1.9032 5.98394 1.37133 7.26835C0.839457 8.55276 0.565798 9.92936 0.565979 11.3195V33.6825C0.566345 36.4897 1.68173 39.1817 3.66679 41.1665C5.65185 43.1513 8.34401 44.2663 11.1511 44.2663H33.5141C36.3212 44.2663 39.0134 43.1513 40.9985 41.1665C42.9835 39.1817 44.0989 36.4897 44.0993 33.6825V11.3195C44.0995 9.92936 43.8258 8.55276 43.2939 7.26835C42.7621 5.98394 41.9824 4.81688 40.9994 3.83381C40.0165 2.85074 38.8495 2.07092 37.5652 1.53888C36.2809 1.00684 34.9043 0.733002 33.5141 0.733002ZM34.2085 35.582C33.0899 35.8263 31.5344 36.1146 29.5419 36.4468C27.5495 36.7791 25.1377 36.9452 22.3064 36.9452C20.5238 36.9452 18.9071 36.7878 17.4563 36.4731C16.0054 36.1583 14.7559 35.6423 13.7077 34.9249C12.6692 34.2204 11.8368 33.2523 11.2961 32.1199C10.7365 30.9668 10.4568 29.5511 10.4568 27.873C10.4568 26.2652 10.78 24.9021 11.4265 23.7835C12.0518 22.6868 12.9449 21.7666 14.0224 21.1089C15.1056 20.4467 16.3464 19.9675 17.7448 19.6711L16.8661 19.4827C15.5644 19.3557 14.9066 19.7588 13.9631 20.1094L13.0258 9.36553C13.4799 9.22749 14.048 9.07886 14.7299 8.91965C15.4118 8.76044 16.1547 8.62079 16.9586 8.50069C17.762 8.37829 18.6096 8.27338 19.5014 8.18595C20.3931 8.09853 21.2932 8.05481 22.2015 8.05481C24.5086 8.05481 26.4311 8.3171 27.9689 8.84166C29.5067 9.36622 30.739 10.1176 31.6657 11.0959C32.5915 12.0732 33.247 13.2618 33.6321 14.6616C34.0173 16.0613 34.2094 17.6161 34.2085 19.326V35.582Z" fill="#FCA800"/>
</svg>
